<?xml version="1.0" encoding="UTF-8"?>
<svg width="469px" height="452px" viewBox="0 0 469 452" version="1.1" xmlns="http://www.w3.org/2000/svg" xmlns:xlink="http://www.w3.org/1999/xlink">
    <!-- Generator: Sketch 58 (84663) - https://sketch.com -->
    <title>snapchat</title>
    <desc>Created with Sketch.</desc>
    <g id="Page-1" stroke="none" stroke-width="1" fill="none" fill-rule="evenodd">
        <g id="snapchat" fill="#FFFFFF" fill-rule="nonzero">
            <path d="M233.962,25.724 C296.819,25.745 349.178,78.075 349.254,141.084 C349.272,155.842 349.727,169.432 350.56,181.951 C351.074,189.675 357.498,195.399 364.865,195.399 C365.95,195.399 367.055,195.275 368.165,195.015 L387.856,190.399 C388.694,190.202 389.535,190.108 390.366,190.108 C395.367,190.108 399.972,193.525 401.095,198.586 C402.682,205.738 398.675,212.964 391.745,215.394 L361.855,227.46 C354.309,230.506 350.256,238.719 352.381,246.575 C376.361,335.229 443.34,326.009 443.34,337.559 C443.34,352.063 392.855,354.111 388.294,358.673 C383.733,363.235 388.096,385.374 377.905,389.66 C375.984,390.468 373.255,390.749 369.926,390.749 C362.25,390.749 351.394,389.251 339.952,389.251 C330.027,389.251 319.661,390.378 310.548,394.588 C286.372,405.756 263.064,426.616 234.17,426.616 C205.276,426.616 181.968,405.756 157.792,394.588 C148.677,390.377 138.314,389.251 128.388,389.251 C116.947,389.251 106.089,390.749 98.414,390.749 C95.087,390.749 92.355,390.467 90.435,389.66 C80.244,385.374 84.607,363.235 80.046,358.673 C75.485,354.111 25,352.062 25,337.558 C25,326.007 91.979,335.227 115.959,246.574 C118.084,238.719 114.031,230.506 106.484,227.459 L76.594,215.393 C69.663,212.963 65.656,205.737 67.244,198.585 C68.367,193.523 72.972,190.106 77.973,190.107 C78.803,190.107 79.645,190.201 80.483,190.398 L100.174,195.014 C101.284,195.274 102.389,195.398 103.474,195.398 C110.84,195.398 117.265,189.673 117.779,181.95 C118.612,169.431 119.068,155.841 119.086,141.083 C119.162,78.075 171.104,25.746 233.962,25.724 M233.97,0.724 L233.961,0.724 L233.952,0.724 C215.19,0.73 196.913,4.5 179.631,11.93 C163.042,19.061 148.112,29.229 135.256,42.152 C122.417,55.058 112.313,70.041 105.225,86.685 C97.855,103.992 94.107,122.284 94.084,141.053 C94.073,150.268 93.882,159.211 93.514,167.775 L86.188,166.057 C83.5,165.427 80.736,165.107 77.975,165.106 C70.002,165.105 62.137,167.8 55.829,172.694 C49.248,177.8 44.633,185.071 42.836,193.168 C38.559,212.441 49.201,231.898 67.643,238.74 L89.58,247.595 C75.054,292.181 48.269,300.725 30.232,306.48 C25.446,308.007 21.312,309.326 17.376,311.279 C1.693,319.063 0,332.25 0,337.558 C0,347.725 4.812,357.003 13.551,363.682 C17.902,367.008 23.292,369.752 30.028,372.071 C39.209,375.232 49.852,377.238 58.502,378.846 C58.92,382.051 59.533,385.494 60.566,388.964 C64.855,403.375 73.906,409.828 80.744,412.703 C87.232,415.432 93.936,415.747 98.414,415.747 C102.794,415.747 107.424,415.404 112.326,415.041 C117.585,414.651 123.023,414.249 128.388,414.249 C136.702,414.249 142.891,415.241 147.308,417.281 C153.373,420.083 159.805,423.861 166.615,427.86 C185.573,438.994 207.06,451.614 234.17,451.614 C261.28,451.614 282.766,438.994 301.724,427.86 C308.534,423.86 314.966,420.083 321.032,417.281 C325.449,415.24 331.638,414.249 339.952,414.249 C345.317,414.249 350.755,414.652 356.013,415.041 C360.915,415.404 365.545,415.747 369.925,415.747 C374.403,415.747 381.106,415.432 387.595,412.703 C394.433,409.828 403.484,403.375 407.773,388.964 C408.806,385.494 409.42,382.051 409.837,378.846 C418.487,377.237 429.131,375.232 438.311,372.071 C445.048,369.752 450.437,367.008 454.788,363.682 C463.526,357.003 468.339,347.725 468.339,337.558 C468.339,332.25 466.646,319.063 450.961,311.28 C447.025,309.327 442.891,308.008 438.105,306.481 C420.068,300.727 393.283,292.182 378.757,247.596 L400.693,238.741 C419.135,231.899 429.778,212.441 425.501,193.168 C423.704,185.071 419.089,177.8 412.508,172.694 C406.2,167.801 398.337,165.106 390.366,165.106 C387.605,165.106 384.841,165.426 382.151,166.056 L374.824,167.774 C374.456,159.211 374.265,150.268 374.254,141.052 C374.231,122.268 370.453,103.958 363.024,86.628 C355.893,69.992 345.734,55.013 332.83,42.106 C319.927,29.2 304.955,19.043 288.332,11.918 C271.017,4.497 252.727,0.731 233.97,0.724 L233.97,0.724 Z" id="Shape"></path>
        </g>
    </g>
</svg>