<?xml version="1.0" encoding="UTF-8"?>
<svg width="448px" height="192px" viewBox="0 0 448 192" version="1.1" xmlns="http://www.w3.org/2000/svg" xmlns:xlink="http://www.w3.org/1999/xlink">
    <!-- Generator: Sketch 58 (84663) - https://sketch.com -->
    <title>soundcloud</title>
    <desc>Created with Sketch.</desc>
    <g id="Page-1" stroke="none" stroke-width="1" fill="none" fill-rule="evenodd">
        <g id="soundcloud" fill="#FFFFFF" fill-rule="nonzero">
            <path d="M447.601,135.733 C445.816,109.749 424.474,88.871 398.459,87.61 C388.517,87.128 379.153,89.45 371.086,93.85 C370.011,42.105 327.758,0.482 275.756,0.482 C262.001,0.482 248.936,3.405 237.129,8.65 C234.588,9.779 232.969,12.323 232.969,15.104 L232.969,184.171 C232.969,188.077 236.136,191.244 240.042,191.244 L395.879,191.244 C425.725,191.244 449.681,166.024 447.601,135.733 Z" id="Path"></path>
            <path d="M219.182,11.431 C215.249,11.431 212.062,14.619 212.062,18.551 L212.062,183.938 C212.062,187.871 215.25,191.058 219.182,191.058 C223.114,191.058 226.303,187.87 226.303,183.938 L226.303,18.551 C226.303,14.619 223.114,11.431 219.182,11.431 Z" id="Path"></path>
            <path d="M195.62,29.019 C191.687,29.019 188.5,32.207 188.5,36.139 L188.5,183.938 C188.5,187.871 191.688,191.058 195.62,191.058 C199.552,191.058 202.74,187.87 202.74,183.938 L202.74,36.139 C202.74,32.207 199.552,29.019 195.62,29.019 Z" id="Path"></path>
            <path d="M172.057,37.033 C168.124,37.033 164.937,40.221 164.937,44.153 L164.937,183.938 C164.937,187.871 168.125,191.058 172.057,191.058 C175.99,191.058 179.177,187.87 179.177,183.938 L179.177,44.153 C179.178,40.22 175.99,37.033 172.057,37.033 Z" id="Path"></path>
            <path d="M148.495,26.348 C144.562,26.348 141.375,29.536 141.375,33.468 L141.375,183.938 C141.375,187.871 144.563,191.058 148.495,191.058 C152.427,191.058 155.615,187.87 155.615,183.938 L155.615,33.468 C155.615,29.536 152.427,26.348 148.495,26.348 Z" id="Path"></path>
            <path d="M124.932,33.471 C120.999,33.471 117.812,36.659 117.812,40.591 L117.812,183.938 C117.812,187.871 121,191.058 124.932,191.058 C128.864,191.058 132.052,187.87 132.052,183.938 L132.052,40.591 C132.052,36.659 128.865,33.471 124.932,33.471 Z" id="Path"></path>
            <path d="M101.37,47.718 C97.437,47.718 94.25,50.906 94.25,54.838 L94.25,183.938 C94.25,187.871 97.438,191.058 101.37,191.058 C105.302,191.058 108.49,187.87 108.49,183.938 L108.49,54.838 C108.491,50.905 105.303,47.718 101.37,47.718 Z" id="Path"></path>
            <path d="M77.808,75.32 C73.875,75.32 70.688,78.508 70.688,82.44 L70.688,183.938 C70.688,187.871 73.876,191.058 77.808,191.058 C81.741,191.058 84.928,187.87 84.928,183.938 L84.928,82.44 C84.928,78.508 81.74,75.32 77.808,75.32 Z" id="Path"></path>
            <path d="M54.245,86.895 C50.312,86.895 47.125,90.083 47.125,94.015 L47.125,183.938 C47.125,187.871 50.313,191.058 54.245,191.058 C58.177,191.058 61.365,187.87 61.365,183.938 L61.365,94.015 C61.365,90.083 58.178,86.895 54.245,86.895 Z" id="Path"></path>
            <path d="M30.683,89.551 C26.75,89.551 23.563,92.739 23.563,96.671 L23.563,181.282 C23.563,185.215 26.751,188.402 30.683,188.402 C34.615,188.402 37.803,185.214 37.803,181.282 L37.803,96.671 C37.803,92.739 34.615,89.551 30.683,89.551 Z" id="Path"></path>
            <path d="M7.12,108.143 C3.187,108.143 0,111.331 0,115.263 L0,164.019 C0,167.952 3.188,171.139 7.12,171.139 C11.052,171.139 14.24,167.951 14.24,164.019 L14.24,115.263 C14.24,111.33 11.053,108.143 7.12,108.143 Z" id="Path"></path>
        </g>
    </g>
</svg>